<mxfile host="app.diagrams.net" modified="2022-03-11T09:23:50.168Z" agent="5.0 (Windows NT 10.0; Win64; x64) AppleWebKit/537.36 (KHTML, like Gecko) Chrome/97.0.4692.71 Safari/537.36" etag="3RoCQTfQMax0Clt4Ba29" version="17.1.1" type="github">
  <diagram id="t_F-1Dw6Zl5kQm8IEOU6" name="第 1 页">
    <mxGraphModel dx="1185" dy="635" grid="1" gridSize="10" guides="1" tooltips="1" connect="1" arrows="1" fold="1" page="1" pageScale="1" pageWidth="1200" pageHeight="1920" math="0" shadow="0">
      <root>
        <mxCell id="0" />
        <mxCell id="1" parent="0" />
        <mxCell id="rYx-SEjjHaIsWCA3k80J-33" value="" style="whiteSpace=wrap;html=1;labelBackgroundColor=none;fontSize=14;fillColor=#fff2cc;strokeColor=#d6b656;" vertex="1" parent="1">
          <mxGeometry x="370" y="710" width="500" height="510" as="geometry" />
        </mxCell>
        <mxCell id="rYx-SEjjHaIsWCA3k80J-32" value="" style="whiteSpace=wrap;html=1;labelBackgroundColor=none;fontSize=14;fillColor=#ffe6cc;strokeColor=#d79b00;" vertex="1" parent="1">
          <mxGeometry x="370" y="150" width="500" height="560" as="geometry" />
        </mxCell>
        <mxCell id="rYx-SEjjHaIsWCA3k80J-1" value="" style="edgeStyle=orthogonalEdgeStyle;rounded=0;orthogonalLoop=1;jettySize=auto;html=1;fontSize=16;fontColor=#007FFF;" edge="1" parent="1" source="T5tk2AwcZrp4xSw99o7m-2" target="T5tk2AwcZrp4xSw99o7m-8">
          <mxGeometry relative="1" as="geometry" />
        </mxCell>
        <mxCell id="T5tk2AwcZrp4xSw99o7m-2" value="开始" style="strokeWidth=2;html=1;shape=mxgraph.flowchart.start_2;whiteSpace=wrap;" parent="1" vertex="1">
          <mxGeometry x="550" y="50" width="100" height="70" as="geometry" />
        </mxCell>
        <mxCell id="T5tk2AwcZrp4xSw99o7m-5" value="&lt;ul style=&quot;font-size: 15px;&quot;&gt;&lt;li style=&quot;font-size: 15px;&quot;&gt;场次 id&lt;/li&gt;&lt;li style=&quot;font-size: 15px;&quot;&gt;主播 id&lt;/li&gt;&lt;li style=&quot;font-size: 15px;&quot;&gt;店铺 id&lt;/li&gt;&lt;li style=&quot;font-size: 15px;&quot;&gt;子单 id&lt;/li&gt;&lt;/ul&gt;" style="text;strokeColor=none;fillColor=none;html=1;whiteSpace=wrap;verticalAlign=middle;overflow=hidden;fontSize=15;" parent="1" vertex="1">
          <mxGeometry x="720" y="375" width="130" height="110" as="geometry" />
        </mxCell>
        <mxCell id="T5tk2AwcZrp4xSw99o7m-7" value="&lt;div style=&quot;font-size: 16px&quot;&gt;&lt;span style=&quot;white-space: pre ; font-size: 16px&quot;&gt;	&lt;/span&gt;&lt;span style=&quot;white-space: pre ; font-size: 16px&quot;&gt;	&lt;/span&gt;&lt;/div&gt;&lt;div style=&quot;font-size: 16px&quot;&gt;&lt;span style=&quot;white-space: pre&quot;&gt;	&lt;/span&gt;&amp;nbsp; &amp;nbsp; &amp;nbsp; 表头&lt;/div&gt;&lt;ul style=&quot;font-size: 16px&quot;&gt;&lt;li style=&quot;font-size: 16px&quot;&gt;场次名称&lt;/li&gt;&lt;li style=&quot;font-size: 16px&quot;&gt;店铺名称&lt;/li&gt;&lt;li style=&quot;font-size: 16px&quot;&gt;主播名称&lt;/li&gt;&lt;li style=&quot;font-size: 16px&quot;&gt;主播编号&lt;/li&gt;&lt;li style=&quot;font-size: 16px&quot;&gt;总销售额&lt;/li&gt;&lt;li style=&quot;font-size: 16px&quot;&gt;货品总成本&lt;/li&gt;&lt;li style=&quot;font-size: 16px&quot;&gt;邮费总成本&lt;/li&gt;&lt;li style=&quot;font-size: 16px&quot;&gt;订单包装总成本&lt;/li&gt;&lt;li style=&quot;font-size: 16px&quot;&gt;预估退款率&lt;/li&gt;&lt;li style=&quot;font-size: 16px&quot;&gt;预估退款金额&lt;/li&gt;&lt;li style=&quot;font-size: 16px&quot;&gt;预估毛利&lt;/li&gt;&lt;li style=&quot;font-size: 16px&quot;&gt;退款订单量&lt;/li&gt;&lt;li style=&quot;font-size: 16px&quot;&gt;退款商品数量&lt;/li&gt;&lt;li style=&quot;font-size: 16px&quot;&gt;退款金额&lt;/li&gt;&lt;li style=&quot;font-size: 16px&quot;&gt;毛利&lt;/li&gt;&lt;li style=&quot;font-size: 16px&quot;&gt;主播佣金&lt;/li&gt;&lt;/ul&gt;&lt;div&gt;&lt;br&gt;&lt;/div&gt;" style="text;strokeColor=none;fillColor=none;html=1;whiteSpace=wrap;verticalAlign=middle;overflow=hidden;fontSize=16;fontColor=#007FFF;labelBackgroundColor=none;" parent="1" vertex="1">
          <mxGeometry x="180" y="50" width="160" height="410" as="geometry" />
        </mxCell>
        <mxCell id="rYx-SEjjHaIsWCA3k80J-3" value="" style="edgeStyle=orthogonalEdgeStyle;rounded=0;orthogonalLoop=1;jettySize=auto;html=1;fontSize=16;fontColor=#007FFF;" edge="1" parent="1" source="T5tk2AwcZrp4xSw99o7m-8" target="rYx-SEjjHaIsWCA3k80J-2">
          <mxGeometry relative="1" as="geometry" />
        </mxCell>
        <mxCell id="T5tk2AwcZrp4xSw99o7m-8" value="查询昨天已出库&lt;br&gt;所有系统子订单" style="whiteSpace=wrap;html=1;strokeWidth=2;" parent="1" vertex="1">
          <mxGeometry x="540" y="170" width="120" height="60" as="geometry" />
        </mxCell>
        <mxCell id="rYx-SEjjHaIsWCA3k80J-4" style="edgeStyle=orthogonalEdgeStyle;rounded=0;orthogonalLoop=1;jettySize=auto;html=1;fontSize=16;fontColor=#007FFF;" edge="1" parent="1" source="rYx-SEjjHaIsWCA3k80J-2">
          <mxGeometry relative="1" as="geometry">
            <mxPoint x="600" y="270" as="targetPoint" />
            <Array as="points">
              <mxPoint x="440" y="340" />
              <mxPoint x="440" y="270" />
            </Array>
          </mxGeometry>
        </mxCell>
        <mxCell id="rYx-SEjjHaIsWCA3k80J-5" value="循环下一个订单" style="edgeLabel;html=1;align=center;verticalAlign=middle;resizable=0;points=[];fontSize=14;fontColor=#000000;labelBackgroundColor=default;" vertex="1" connectable="0" parent="rYx-SEjjHaIsWCA3k80J-4">
          <mxGeometry x="0.2615" y="-3" relative="1" as="geometry">
            <mxPoint x="18" y="-3" as="offset" />
          </mxGeometry>
        </mxCell>
        <mxCell id="rYx-SEjjHaIsWCA3k80J-8" value="不属于" style="edgeLabel;html=1;align=center;verticalAlign=middle;resizable=0;points=[];fontSize=14;fontColor=#000000;" vertex="1" connectable="0" parent="rYx-SEjjHaIsWCA3k80J-4">
          <mxGeometry x="-0.65" y="1" relative="1" as="geometry">
            <mxPoint as="offset" />
          </mxGeometry>
        </mxCell>
        <mxCell id="rYx-SEjjHaIsWCA3k80J-7" value="" style="edgeStyle=orthogonalEdgeStyle;rounded=0;orthogonalLoop=1;jettySize=auto;html=1;fontSize=16;fontColor=#007FFF;" edge="1" parent="1" source="rYx-SEjjHaIsWCA3k80J-2" target="rYx-SEjjHaIsWCA3k80J-6">
          <mxGeometry relative="1" as="geometry" />
        </mxCell>
        <mxCell id="rYx-SEjjHaIsWCA3k80J-2" value="直播订单？" style="rhombus;whiteSpace=wrap;html=1;strokeWidth=2;" vertex="1" parent="1">
          <mxGeometry x="530" y="300" width="140" height="80" as="geometry" />
        </mxCell>
        <mxCell id="rYx-SEjjHaIsWCA3k80J-11" value="" style="edgeStyle=orthogonalEdgeStyle;rounded=0;orthogonalLoop=1;jettySize=auto;html=1;fontSize=14;fontColor=#000000;" edge="1" parent="1" source="rYx-SEjjHaIsWCA3k80J-6" target="rYx-SEjjHaIsWCA3k80J-10">
          <mxGeometry relative="1" as="geometry" />
        </mxCell>
        <mxCell id="rYx-SEjjHaIsWCA3k80J-6" value="获取绩效表&lt;br&gt;该订单信息" style="whiteSpace=wrap;html=1;strokeWidth=2;" vertex="1" parent="1">
          <mxGeometry x="540" y="430" width="120" height="60" as="geometry" />
        </mxCell>
        <mxCell id="rYx-SEjjHaIsWCA3k80J-9" value="" style="endArrow=none;dashed=1;html=1;dashPattern=1 3;strokeWidth=2;rounded=0;fontSize=14;fontColor=#000000;entryX=0;entryY=0.5;entryDx=0;entryDy=0;exitX=1;exitY=0.5;exitDx=0;exitDy=0;" edge="1" parent="1" source="rYx-SEjjHaIsWCA3k80J-6" target="T5tk2AwcZrp4xSw99o7m-5">
          <mxGeometry width="50" height="50" relative="1" as="geometry">
            <mxPoint x="700" y="490" as="sourcePoint" />
            <mxPoint x="750" y="440" as="targetPoint" />
          </mxGeometry>
        </mxCell>
        <mxCell id="rYx-SEjjHaIsWCA3k80J-26" value="" style="edgeStyle=orthogonalEdgeStyle;rounded=0;orthogonalLoop=1;jettySize=auto;html=1;fontSize=14;fontColor=#000000;" edge="1" parent="1" source="rYx-SEjjHaIsWCA3k80J-10" target="rYx-SEjjHaIsWCA3k80J-25">
          <mxGeometry relative="1" as="geometry" />
        </mxCell>
        <mxCell id="rYx-SEjjHaIsWCA3k80J-10" value="计算销售额&lt;br&gt;成本&lt;br&gt;邮费" style="whiteSpace=wrap;html=1;strokeWidth=2;" vertex="1" parent="1">
          <mxGeometry x="540" y="530" width="120" height="60" as="geometry" />
        </mxCell>
        <mxCell id="rYx-SEjjHaIsWCA3k80J-17" value="" style="edgeStyle=orthogonalEdgeStyle;rounded=0;orthogonalLoop=1;jettySize=auto;html=1;fontSize=14;fontColor=#000000;" edge="1" parent="1" source="rYx-SEjjHaIsWCA3k80J-14" target="rYx-SEjjHaIsWCA3k80J-16">
          <mxGeometry relative="1" as="geometry" />
        </mxCell>
        <mxCell id="rYx-SEjjHaIsWCA3k80J-14" value="查询昨天已退款/退货/换货的所有系统子订单" style="whiteSpace=wrap;html=1;strokeWidth=2;" vertex="1" parent="1">
          <mxGeometry x="530" y="760" width="140" height="60" as="geometry" />
        </mxCell>
        <mxCell id="rYx-SEjjHaIsWCA3k80J-20" style="edgeStyle=orthogonalEdgeStyle;rounded=0;orthogonalLoop=1;jettySize=auto;html=1;fontSize=14;fontColor=#000000;" edge="1" parent="1">
          <mxGeometry relative="1" as="geometry">
            <mxPoint x="530.0200000000004" y="950.0285714285715" as="sourcePoint" />
            <mxPoint x="599.97" y="860" as="targetPoint" />
            <Array as="points">
              <mxPoint x="419.97" y="950" />
              <mxPoint x="419.97" y="860" />
            </Array>
          </mxGeometry>
        </mxCell>
        <mxCell id="rYx-SEjjHaIsWCA3k80J-21" value="不属于" style="edgeLabel;html=1;align=center;verticalAlign=middle;resizable=0;points=[];fontSize=14;fontColor=#000000;" vertex="1" connectable="0" parent="rYx-SEjjHaIsWCA3k80J-20">
          <mxGeometry x="-0.3565" y="1" relative="1" as="geometry">
            <mxPoint x="51" y="12" as="offset" />
          </mxGeometry>
        </mxCell>
        <mxCell id="rYx-SEjjHaIsWCA3k80J-22" value="循环下一个订单" style="edgeLabel;html=1;align=center;verticalAlign=middle;resizable=0;points=[];fontSize=14;fontColor=#000000;" vertex="1" connectable="0" parent="rYx-SEjjHaIsWCA3k80J-20">
          <mxGeometry x="0.0261" y="3" relative="1" as="geometry">
            <mxPoint x="83" y="-4" as="offset" />
          </mxGeometry>
        </mxCell>
        <mxCell id="rYx-SEjjHaIsWCA3k80J-29" value="" style="edgeStyle=orthogonalEdgeStyle;rounded=0;orthogonalLoop=1;jettySize=auto;html=1;fontSize=14;fontColor=#000000;" edge="1" parent="1" source="rYx-SEjjHaIsWCA3k80J-16" target="rYx-SEjjHaIsWCA3k80J-28">
          <mxGeometry relative="1" as="geometry" />
        </mxCell>
        <mxCell id="rYx-SEjjHaIsWCA3k80J-16" value="直播订单？" style="rhombus;whiteSpace=wrap;html=1;strokeWidth=2;" vertex="1" parent="1">
          <mxGeometry x="530" y="910" width="140" height="80" as="geometry" />
        </mxCell>
        <mxCell id="rYx-SEjjHaIsWCA3k80J-27" value="" style="edgeStyle=orthogonalEdgeStyle;rounded=0;orthogonalLoop=1;jettySize=auto;html=1;fontSize=14;fontColor=#000000;" edge="1" parent="1" source="rYx-SEjjHaIsWCA3k80J-25" target="rYx-SEjjHaIsWCA3k80J-14">
          <mxGeometry relative="1" as="geometry" />
        </mxCell>
        <mxCell id="rYx-SEjjHaIsWCA3k80J-25" value="修改绩效表&lt;br&gt;销售额，成本，货品数量" style="whiteSpace=wrap;html=1;strokeWidth=2;" vertex="1" parent="1">
          <mxGeometry x="540" y="640" width="120" height="60" as="geometry" />
        </mxCell>
        <mxCell id="rYx-SEjjHaIsWCA3k80J-31" value="" style="edgeStyle=orthogonalEdgeStyle;rounded=0;orthogonalLoop=1;jettySize=auto;html=1;fontSize=14;fontColor=#000000;" edge="1" parent="1" source="rYx-SEjjHaIsWCA3k80J-28" target="rYx-SEjjHaIsWCA3k80J-30">
          <mxGeometry relative="1" as="geometry" />
        </mxCell>
        <mxCell id="rYx-SEjjHaIsWCA3k80J-28" value="获取退款，&lt;br&gt;退换数量&lt;br&gt;换出货品成本" style="whiteSpace=wrap;html=1;strokeWidth=2;" vertex="1" parent="1">
          <mxGeometry x="540" y="1030" width="120" height="60" as="geometry" />
        </mxCell>
        <mxCell id="rYx-SEjjHaIsWCA3k80J-30" value="修改绩效表&lt;br&gt;退款金额和成本" style="whiteSpace=wrap;html=1;strokeWidth=2;" vertex="1" parent="1">
          <mxGeometry x="540" y="1130" width="120" height="60" as="geometry" />
        </mxCell>
        <mxCell id="rYx-SEjjHaIsWCA3k80J-34" value="统计销售" style="text;html=1;strokeColor=none;fillColor=none;align=center;verticalAlign=middle;whiteSpace=wrap;rounded=0;labelBackgroundColor=none;fontSize=14;fontColor=#000000;" vertex="1" parent="1">
          <mxGeometry x="760" y="150" width="110" height="30" as="geometry" />
        </mxCell>
        <mxCell id="rYx-SEjjHaIsWCA3k80J-35" value="统计退换" style="text;html=1;strokeColor=none;fillColor=none;align=center;verticalAlign=middle;whiteSpace=wrap;rounded=0;labelBackgroundColor=none;fontSize=14;fontColor=#000000;" vertex="1" parent="1">
          <mxGeometry x="760" y="710" width="110" height="30" as="geometry" />
        </mxCell>
      </root>
    </mxGraphModel>
  </diagram>
</mxfile>
